<?xml version="1.0" standalone="no"?>
<!DOCTYPE svg PUBLIC "-//W3C//DTD SVG 20010904//EN"
 "http://www.w3.org/TR/2001/REC-SVG-20010904/DTD/svg10.dtd">
<svg version="1.0" xmlns="http://www.w3.org/2000/svg"
 width="354.000000pt" height="142.000000pt" viewBox="0 0 354.000000 142.000000"
 preserveAspectRatio="xMidYMid meet">

<g transform="translate(0.000000,142.000000) scale(0.100000,-0.100000)"
fill="#000000" stroke="none">
<path d="M661 1204 c-219 -59 -383 -298 -355 -517 16 -124 64 -217 156 -303
124 -115 282 -158 450 -123 99 21 223 102 268 173 12 20 28 36 36 36 47 0 94
64 94 129 0 48 -45 106 -100 128 -72 30 -104 89 -61 113 29 15 48 12 69 -10
12 -13 25 -18 35 -14 19 7 22 29 7 39 -6 4 -8 15 -5 25 9 29 -44 127 -102 190
-116 126 -318 181 -492 134z m59 -19 c0 -3 -36 -48 -81 -101 -148 -176 -189
-260 -189 -387 0 -143 50 -239 153 -291 50 -26 69 -30 135 -29 92 1 135 17
199 75 71 66 88 107 88 213 0 98 -10 125 -67 190 -52 60 -100 80 -195 80 -46
0 -83 3 -83 7 0 20 201 238 219 238 32 0 161 -69 206 -111 39 -36 115 -144
115 -163 0 -3 -14 -6 -30 -6 -38 0 -86 -24 -100 -49 -31 -58 2 -117 87 -157
62 -30 97 -74 88 -114 -8 -35 -50 -70 -84 -70 -34 0 -81 34 -81 59 0 24 -8 30
-31 24 -10 -3 -19 -13 -19 -22 0 -29 40 -83 70 -94 17 -6 30 -14 30 -18 0 -4
-22 -27 -48 -51 -116 -104 -275 -142 -427 -103 -132 35 -229 115 -292 242 -37
76 -38 79 -38 193 0 114 1 117 38 192 59 119 146 197 272 240 53 19 65 21 65
13z m117 -391 c79 -60 91 -163 27 -234 -44 -48 -82 -64 -143 -58 -59 6 -105
36 -131 88 -26 51 -25 97 3 150 47 90 164 115 244 54z"/>
<path d="M1410 795 c0 -52 -1 -55 -25 -55 -20 0 -25 -5 -25 -25 0 -20 5 -25
25 -25 24 0 24 0 27 -112 l3 -113 25 0 25 0 3 113 c3 112 3 112 27 112 20 0
25 5 25 25 0 20 -5 25 -25 25 -24 0 -25 3 -25 55 0 54 0 55 -30 55 -30 0 -30
-1 -30 -55z"/>
<path d="M3217 842 c6 -4 13 -23 16 -42 l4 -35 1 37 c1 20 8 39 15 41 6 3 -1
6 -18 6 -17 0 -25 -3 -18 -7z"/>
<path d="M3281 834 c0 -11 3 -14 6 -6 3 7 2 16 -1 19 -3 4 -6 -2 -5 -13z"/>
<path d="M1662 743 c-70 -34 -101 -125 -67 -197 67 -142 285 -94 285 63 0 114
-115 185 -218 134z m139 -62 c64 -65 20 -171 -71 -171 -58 0 -100 42 -100 100
0 91 106 135 171 71z"/>
<path d="M2244 746 c-61 -27 -101 -107 -83 -170 26 -92 124 -142 203 -101 36
19 46 19 46 0 0 -9 9 -15 25 -15 l25 0 0 145 0 145 -24 0 c-13 0 -26 -6 -29
-12 -3 -10 -12 -9 -35 5 -36 20 -85 21 -128 3z m137 -65 c41 -42 41 -98 -2
-140 -65 -65 -169 -23 -169 69 0 91 106 135 171 71z"/>
<path d="M2632 743 c-98 -48 -109 -197 -18 -252 47 -29 98 -36 134 -17 42 22
45 20 28 -13 -26 -49 -104 -64 -137 -25 -13 15 -69 19 -69 5 0 -20 63 -60 104
-66 73 -11 132 18 165 82 6 13 11 75 11 152 l0 131 -25 0 c-14 0 -25 -4 -25
-10 0 -5 -15 -1 -32 10 -40 24 -91 25 -136 3z m139 -62 c64 -64 20 -171 -69
-171 -57 0 -102 45 -102 102 0 89 107 133 171 69z"/>
<path d="M3010 738 c-54 -37 -74 -72 -74 -128 0 -113 119 -183 222 -131 23 12
46 30 52 41 16 31 -31 39 -66 11 -26 -20 -93 -29 -108 -14 -3 4 32 46 80 94
54 55 85 93 81 102 -8 21 -70 47 -115 47 -24 0 -52 -9 -72 -22z m120 -36 c0
-4 -29 -37 -65 -72 -71 -70 -93 -72 -81 -7 10 53 50 87 102 87 24 0 44 -4 44
-8z"/>
<path d="M1960 606 l0 -134 25 -4 25 -5 0 87 c0 93 16 131 60 145 22 7 28 45
7 45 -7 0 -22 -7 -33 -15 -25 -19 -34 -19 -34 0 0 9 -9 15 -25 15 l-25 0 0
-134z"/>
</g>
</svg>
